name Walk9_EMG.mot
datacolumns 17
datarows 33
range 2.88700000 2.91900000
endheader
                time	            vasmed_r	            vaslat_r	            recfem_r	               gra_r	               sar_r	            tibant_r	           perlong_r	            addmag_r	           semimem_r	          bicfemlh_r	            gasmed_r	            gaslat_r	               sol_r	               tfl_r	              gmed_r	              gmax_r	
          2.88700000	          0.74066217	          0.56501625	          0.54936981	          0.24707850	          0.57632706	          0.20871531	          0.95974509	          0.89869315	          0.14476220	          0.25470902	          0.11658458	          0.61587618	          0.04975429	          0.37077585	          0.52882881	          0.36865439	
          2.88800000	          0.72181098	          0.55144793	          0.54505689	          0.24565522	          0.58503306	          0.20865376	          0.95379379	          0.91302585	          0.14408849	          0.25514766	          0.11683367	          0.62171217	          0.05028757	          0.37055913	          0.52475868	          0.36070423	
          2.88900000	          0.70269342	          0.53771980	          0.54077461	          0.24435123	          0.59396666	          0.20846569	          0.94752064	          0.92643801	          0.14338756	          0.25546728	          0.11719699	          0.62704176	          0.05090501	          0.37043373	          0.52078385	          0.35310150	
          2.89000000	          0.68335958	          0.52386748	          0.53654359	          0.24316700	          0.60308993	          0.20814388	          0.94092373	          0.93886367	          0.14266033	          0.25566352	          0.11767641	          0.63184089	          0.05160563	          0.37038784	          0.51689407	          0.34584599	
          2.89100000	          0.66385991	          0.50992675	          0.53238122	          0.24210514	          0.61236264	          0.20768164	          0.93400011	          0.95024531	          0.14190795	          0.25573223	          0.11827200	          0.63608585	          0.05238910	          0.37040796	          0.51307890	          0.33893646	
          2.89200000	          0.64424603	          0.49593275	          0.52830205	          0.24116954	          0.62174414	          0.20707292	          0.92674737	          0.96053381	          0.14113180	          0.25566894	          0.11898221	          0.63975492	          0.05325561	          0.37047904	          0.50932746	          0.33237132	
          2.89300000	          0.62457159	          0.48191952	          0.52431770	          0.24036506	          0.63119503	          0.20631289	          0.91916260	          0.96968765	          0.14033308	          0.25546905	          0.11980380	          0.64282929	          0.05420731	          0.37058457	          0.50562981	          0.32614828	
          2.89400000	          0.60489115	          0.46791962	          0.52043692	          0.23969608	          0.64067765	          0.20539868	          0.91124094	          0.97767249	          0.13951272	          0.25512856	          0.12073161	          0.64529393	          0.05525128	          0.37070694	          0.50197921	          0.32026380	
          2.89500000	          0.58525860	          0.45396415	          0.51666548	          0.23916409	          0.65015744	          0.20432995	          0.90297604	          0.98446034	          0.13867158	          0.25464449	          0.12175886	          0.64713905	          0.05640026	          0.37082819	          0.49837340	          0.31471244	
          2.89600000	          0.56572766	          0.44008437	          0.51300597	          0.23876657	          0.65960605	          0.20310901	          0.89436135	          0.99002936	          0.13781082	          0.25401504	          0.12287803	          0.64836043	          0.05767009	          0.37093087	          0.49481427	          0.30948684	
          2.89700000	          0.54635327	          0.42631470	          0.50945812	          0.23849768	          0.66900168	          0.20174025	          0.88539118	          0.99436614	          0.13693222	          0.25323917	          0.12408212	          0.64895817	          0.05907731	          0.37099872	          0.49130563	          0.30457874	
          2.89800000	          0.52719217	          0.41269387	          0.50601923	          0.23834946	          0.67832461	          0.20022914	          0.87606109	          0.99746800	          0.13603793	          0.25231603	          0.12536505	          0.64893618	          0.06063802	          0.37101753	          0.48784952	          0.29998068	
          2.89900000	          0.50830307	          0.39926346	          0.50268480	          0.23831205	          0.68755224	          0.19858116	          0.86636796	          0.99934167	          0.13512989	          0.25124494	          0.12672122	          0.64830268	          0.06236623	          0.37097673	          0.48444503	          0.29568796	
          2.90000000	          0.48974529	          0.38606706	          0.49945011	          0.23837343	          0.69665832	          0.19680142	          0.85631002	          1.00000000	          0.13420975	          0.25002598	          0.12814566	          0.64706946	          0.06427228	          0.37087147	          0.48109106	          0.29170182	
          2.90100000	          0.47157547	          0.37315082	          0.49631181	          0.23851942	          0.70561514	          0.19489458	          0.84588721	          0.99946010	          0.13327921	          0.24866082	          0.12963504	          0.64524989	          0.06636389	          0.37070244	          0.47779030	          0.28803159	
          2.90200000	          0.45384488	          0.36056300	          0.49326761	          0.23873443	          0.71439360	          0.19286484	          0.83510177	          0.99774332	          0.13233989	          0.24715256	          0.13118850	          0.64285785	          0.06864976	          0.37047287	          0.47455204	          0.28469293	
          2.90300000	          0.43659923	          0.34835121	          0.49031389	          0.23900267	          0.72296155	          0.19071601	          0.82395850	          0.99487485	          0.13139301	          0.24550469	          0.13280674	          0.63990823	          0.07114194	          0.37018591	          0.47139324	          0.28170302	
          2.90400000	          0.41988009	          0.33655963	          0.48744358	          0.23930984	          0.73128243	          0.18845170	          0.81246416	          0.99088232	          0.13043932	          0.24372048	          0.13449111	          0.63641731	          0.07385575	          0.36984376	          0.46833649	          0.27907623	
          2.90500000	          0.40372666	          0.32522840	          0.48464596	          0.23964437	          0.73931481	          0.18607541	          0.80062694	          0.98579529	          0.12947906	          0.24180304	          0.13624393	          0.63240295	          0.07681143	          0.36944667	          0.46540459	          0.27682305	
          2.90600000	          0.38817735	          0.31439381	          0.48190848	          0.23999664	          0.74701289	          0.18359096	          0.78845678	          0.97964578	          0.12851206	          0.23975570	          0.13806899	          0.62788662	          0.08003672	          0.36899230	          0.46261569	          0.27495108	
          2.90700000	          0.37327004	          0.30408772	          0.47921982	          0.24035738	          0.75432767	          0.18100304	          0.77596559	          0.97246851	          0.12753826	          0.23758252	          0.13997134	          0.62289586	          0.08356453	          0.36847617	          0.45998182	          0.27346545	
          2.90800000	          0.35904060	          0.29433740	          0.47657236	          0.24071772	          0.76120857	          0.17831742	          0.76316752	          0.96430005	          0.12655824	          0.23528831	          0.14195672	          0.61746361	          0.08742770	          0.36789245	          0.45751015	          0.27236811	
          2.90900000	          0.34552024	          0.28516560	          0.47396151	          0.24107062	          0.76760479	          0.17554048	          0.75008071	          0.95517765	          0.12557332	          0.23287848	          0.14403065	          0.61162381	          0.09165670	          0.36723423	          0.45520494	          0.27165733	
          2.91000000	          0.33273303	          0.27659011	          0.47138261	          0.24141146	          0.77346624	          0.17267844	          0.73672998	          0.94513897	          0.12458543	          0.23035877	          0.14619778	          0.60540759	          0.09627869	          0.36649372	          0.45307016	          0.27132852	
          2.91100000	          0.32069505	          0.26862347	          0.46882909	          0.24173737	          0.77874475	          0.16973718	          0.72314829	          0.93422195	          0.12359732	          0.22773504	          0.14846156	          0.59884303	          0.10131736	          0.36566341	          0.45111262	          0.27137470	
          2.91200000	          0.30941529	          0.26127376	          0.46629336	          0.24204575	          0.78339590	          0.16672249	          0.70937537	          0.92246438	          0.12261286	          0.22501321	          0.15082366	          0.59195746	          0.10679457	          0.36473846	          0.44934386	          0.27178656	
          2.91300000	          0.29889724	          0.25454459	          0.46376979	          0.24233313	          0.78738010	          0.16364042	          0.69545457	          0.90990348	          0.12163651	          0.22219987	          0.15328290	          0.58478055	          0.11272996	          0.36371871	          0.44777824	          0.27255356	
          2.91400000	          0.28914036	          0.24843430	          0.46125670	          0.24259454	          0.79066277	          0.16049726	          0.68143324	          0.89657615	          0.12067270	          0.21930254	          0.15583472	          0.57734765	          0.11913794	          0.36260790	          0.44642841	          0.27366505	
          2.91500000	          0.28014012	          0.24293628	          0.45875535	          0.24282370	          0.79321638	          0.15729921	          0.66736769	          0.88251917	          0.11972549	          0.21632944	          0.15847182	          0.56969997	          0.12602570	          0.36141139	          0.44530254	          0.27510964	
          2.91600000	          0.27188695	          0.23804044	          0.45626652	          0.24301356	          0.79502345	          0.15405231	          0.65332413	          0.86776915	          0.11879870	          0.21328917	          0.16118533	          0.56188028	          0.13339269	          0.36013532	          0.44440620	          0.27687405	
          2.91700000	          0.26436613	          0.23373379	          0.45378828	          0.24315653	          0.79607681	          0.15076269	          0.63937230	          0.85236265	          0.11789559	          0.21019082	          0.16396645	          0.55392933	          0.14122998	          0.35878613	          0.44374516	          0.27894267	
          2.91800000	          0.25755872	          0.23000010	          0.45131627	          0.24324478	          0.79637750	          0.14743712	          0.62558015	          0.83633703	          0.11701856	          0.20704423	          0.16680719	          0.54588743	          0.14952019	          0.35736952	          0.44332493	          0.28129755	
          2.91900000	          0.25144275	          0.22681970	          0.44884551	          0.24327110	          0.79593260	          0.14408353	          0.61201349	          0.81973219	          0.11616929	          0.20385959	          0.16970022	          0.53779729	          0.15823834	          0.35588977	          0.44314861	          0.28391789	
